<svg width="11" height="11" fill="none"><path fill="#181800" d="M.93.04A.89.89 0 0 0 .66 0C.56 0 .43.04.35.07a.84.84 0 0 0-.24.2c-.05.08-.1.2-.1.29v.29c.03.13.22.33 2.27 2.37C3.5 4.45 4.5 5.47 4.5 5.5c0 .02-1 1.03-2.22 2.25a63.2 63.2 0 0 0-2.25 2.3.9.9 0 0 0 0 .55c.04.06.12.17.19.23.07.07.2.14.28.16.09.02.2.03.27.01.05 0 .15-.05.21-.07a68.1 68.1 0 0 0 2.32-2.26l2.2-2.2c4.31 4.3 4.51 4.48 4.66 4.52.1.02.21.03.27.01.06 0 .17-.06.25-.1a.72.72 0 0 0 .23-.22c.05-.1.08-.2.08-.33 0-.1-.02-.23-.04-.3-.02-.05-1.04-1.09-2.26-2.3L6.47 5.5A184.3 184.3 0 0 0 10.95.95C11 .88 11 .78 11 .63c-.01-.17-.04-.25-.12-.35a.82.82 0 0 0-.24-.2.81.81 0 0 0-.3-.08.83.83 0 0 0-.3.07C9.95.1 8.93 1.09 7.7 2.34l-2.2 2.2A150.22 150.22 0 0 0 .93.03Z"/></svg>
